<?xml version="1.0" encoding="UTF-8" standalone="no"?>
<!-- Created with Inkscape (http://www.inkscape.org/) -->

<svg
   xmlns:dc="http://purl.org/dc/elements/1.1/"
   xmlns:cc="http://creativecommons.org/ns#"
   xmlns:rdf="http://www.w3.org/1999/02/22-rdf-syntax-ns#"
   xmlns:svg="http://www.w3.org/2000/svg"
   xmlns="http://www.w3.org/2000/svg"
   xmlns:sodipodi="http://sodipodi.sourceforge.net/DTD/sodipodi-0.dtd"
   xmlns:inkscape="http://www.inkscape.org/namespaces/inkscape"
   width="16"
   height="16"
   viewBox="0 0 4.2333333 4.2333334"
   version="1.1"
   id="svg8"
   inkscape:version="0.92.1 r15371"
   sodipodi:docname="dialog_system.svg"
   inkscape:export-filename="/home/damien/Documents/workspaceGodot/dialink/addons/dialink/assets/dialog_system.png"
   inkscape:export-xdpi="96"
   inkscape:export-ydpi="96">
  <defs
     id="defs2" />
  <sodipodi:namedview
     id="base"
     pagecolor="#ffffff"
     bordercolor="#666666"
     borderopacity="1.0"
     inkscape:pageopacity="0.0"
     inkscape:pageshadow="2"
     inkscape:zoom="39.316667"
     inkscape:cx="2.5201434"
     inkscape:cy="7.4925825"
     inkscape:document-units="mm"
     inkscape:current-layer="layer1"
     showgrid="true"
     units="px"
     showguides="true"
     inkscape:guide-bbox="true"
     inkscape:snap-grids="false"
     inkscape:snap-bbox="true"
     inkscape:bbox-nodes="true"
     inkscape:window-width="1920"
     inkscape:window-height="1051"
     inkscape:window-x="0"
     inkscape:window-y="0"
     inkscape:window-maximized="1">
    <inkscape:grid
       type="xygrid"
       id="grid4485"
       spacingx="0.26458333"
       empspacing="1"
       dotted="true" />
    <sodipodi:guide
       position="9.2604165,67.733334"
       orientation="0,1"
       id="guide4489"
       inkscape:locked="false"
       inkscape:label=""
       inkscape:color="rgb(0,0,255)" />
    <sodipodi:guide
       position="0,67.468752"
       orientation="1,0"
       id="guide4491"
       inkscape:locked="false" />
    <sodipodi:guide
       position="67.733334,70.114584"
       orientation="1,0"
       id="guide4493"
       inkscape:locked="false"
       inkscape:label=""
       inkscape:color="rgb(0,0,255)" />
    <sodipodi:guide
       position="5.2916665,0"
       orientation="0,1"
       id="guide4495"
       inkscape:locked="false" />
    <sodipodi:guide
       position="2.1166666,3.7041667"
       orientation="0,1"
       id="guide5081"
       inkscape:locked="false" />
    <sodipodi:guide
       position="2.2582542,1.5006733"
       orientation="0,1"
       id="guide5083"
       inkscape:locked="false" />
  </sodipodi:namedview>
  <metadata
     id="metadata5">
    <rdf:RDF>
      <cc:Work
         rdf:about="">
        <dc:format>image/svg+xml</dc:format>
        <dc:type
           rdf:resource="http://purl.org/dc/dcmitype/StillImage" />
        <dc:title />
      </cc:Work>
    </rdf:RDF>
  </metadata>
  <g
     inkscape:label="Layer 1"
     inkscape:groupmode="layer"
     id="layer1"
     transform="translate(0,-292.76665)">
    <path
       style="opacity:1;fill:#cea4f1;fill-opacity:1;stroke:none;stroke-width:0.97919625;stroke-linecap:square;stroke-linejoin:round;stroke-miterlimit:0;stroke-dasharray:none;stroke-opacity:1;paint-order:stroke markers fill"
       d="M 3.3164062,2 C 2.0437844,2 1.0195312,3.0242703 1.0195312,4.296875 V 8.03125 c 0,1.2726047 1.0242532,2.296875 2.296875,2.296875 h 5.21875 c 0,3.084775 -4.2246093,3.802734 -4.2246093,3.802734 0,0 6.3613281,-0.996926 6.3613281,-3.802734 h 2.03125 C 13.975748,10.328125 15,9.3038547 15,8.03125 V 4.296875 C 15,3.0242703 13.975748,2 12.703125,2 Z m 9.2675778,2.1875 c 0.212683,0 0.41566,0.022672 0.611328,0.070312 0.195669,0.047641 0.384099,0.1193101 0.564454,0.2128906 v 0.7890625 c -0.182057,-0.1242068 -0.360158,-0.2155877 -0.53711,-0.2734375 -0.176952,-0.05785 -0.364878,-0.087891 -0.560547,-0.087891 -0.350501,0 -0.625399,0.1132975 -0.826171,0.3378906 -0.200773,0.2245932 -0.300782,0.534948 -0.300782,0.9296875 0,0.393038 0.100009,0.7011881 0.300782,0.9257813 0.200772,0.2245931 0.47567,0.3359375 0.826171,0.3359375 0.195669,0 0.383595,-0.028088 0.560547,-0.085937 0.176952,-0.05785 0.355053,-0.1492307 0.53711,-0.2734375 v 0.7890625 c -0.180355,0.09358 -0.368785,0.1632965 -0.564454,0.2109375 -0.195668,0.047641 -0.398645,0.072266 -0.611328,0.072266 -0.634645,0 -1.136893,-0.1773456 -1.507812,-0.53125 -0.370919,-0.3556058 -0.556641,-0.835937 -0.556641,-1.4433594 0,-0.6091238 0.185722,-1.0914081 0.556641,-1.4453125 C 11.447091,4.3650973 11.949339,4.1875 12.583984,4.1875 Z M 3.671875,4.2558594 H 4.84375 L 6.2539062,8.0664062 H 5.265625 L 5.0273438,7.3730469 H 3.4902344 L 3.2480469,8.0664062 H 2.2597656 Z m 3.0859375,0 h 1.4746094 c 0.5291551,0 0.9119341,0.080297 1.1484375,0.2402344 0.2382048,0.1599375 0.3574219,0.4153752 0.3574218,0.7675781 0,0.1854595 -0.044085,0.3435967 -0.1308593,0.4746093 -0.086775,0.1293113 -0.2119112,0.2261084 -0.3769531,0.2890626 0.2109814,0.061253 0.3745348,0.1748018 0.4902343,0.3398437 0.1156995,0.1650419 0.1738281,0.3675156 0.1738281,0.6074219 0,0.367516 -0.1246332,0.6419105 -0.3730468,0.8222656 C 9.2730707,7.9772301 8.8957079,8.0664063 8.3886719,8.0664062 H 6.7578125 Z m 0.9824219,0.6699218 v 0.8046876 h 0.5429687 c 0.1548332,0 0.2715938,-0.033504 0.3515625,-0.1015626 0.079969,-0.068059 0.1210938,-0.1680671 0.1210938,-0.3007812 0,-0.1310127 -0.041125,-0.2307696 -0.1210938,-0.2988281 C 8.5547969,4.9595369 8.4380363,4.9257812 8.2832031,4.9257812 Z M 4.2578125,5.1503906 3.734375,6.6660156 h 1.0449219 z m 3.4824219,1.25 v 0.9980469 h 0.5761718 c 0.1973698,0 0.3446746,-0.041628 0.4433594,-0.125 0.1003864,-0.083372 0.1503906,-0.2104614 0.1503906,-0.3789063 0,-0.1650419 -0.047799,-0.2874703 -0.1464843,-0.3691406 -0.098685,-0.083372 -0.2481944,-0.125 -0.4472657,-0.125 z"
       transform="matrix(0.26458333,0,0,0.26458333,0,292.76665)"
       id="rect4497"
       inkscape:connector-curvature="0" />
  </g>
</svg>
