<?xml version="1.0" encoding="UTF-8" standalone="no"?>
<!-- Created with Inkscape (http://www.inkscape.org/) -->

<svg
   xmlns:dc="http://purl.org/dc/elements/1.1/"
   xmlns:cc="http://creativecommons.org/ns#"
   xmlns:rdf="http://www.w3.org/1999/02/22-rdf-syntax-ns#"
   xmlns:svg="http://www.w3.org/2000/svg"
   xmlns="http://www.w3.org/2000/svg"
   xmlns:sodipodi="http://sodipodi.sourceforge.net/DTD/sodipodi-0.dtd"
   xmlns:inkscape="http://www.inkscape.org/namespaces/inkscape"
   width="16"
   height="16"
   viewBox="0 0 4.2333333 4.2333334"
   version="1.1"
   id="svg8"
   inkscape:version="0.92.1 r15371"
   sodipodi:docname="dialog_system.svg"
   inkscape:export-filename="/home/damien/Documents/workspaceGodot/dialink/addons/icon.png"
   inkscape:export-xdpi="384.00003"
   inkscape:export-ydpi="384.00003">
  <defs
     id="defs2" />
  <sodipodi:namedview
     id="base"
     pagecolor="#ffffff"
     bordercolor="#666666"
     borderopacity="1.0"
     inkscape:pageopacity="0.0"
     inkscape:pageshadow="2"
     inkscape:zoom="19.658334"
     inkscape:cx="19.582941"
     inkscape:cy="2.4109195"
     inkscape:document-units="mm"
     inkscape:current-layer="layer1"
     showgrid="true"
     units="px"
     showguides="true"
     inkscape:guide-bbox="true"
     inkscape:snap-grids="false"
     inkscape:snap-bbox="true"
     inkscape:bbox-nodes="true"
     inkscape:window-width="1920"
     inkscape:window-height="1051"
     inkscape:window-x="0"
     inkscape:window-y="0"
     inkscape:window-maximized="1">
    <inkscape:grid
       type="xygrid"
       id="grid4485"
       spacingx="0.26458333"
       empspacing="1"
       dotted="true" />
    <sodipodi:guide
       position="9.2604165,67.733334"
       orientation="0,1"
       id="guide4489"
       inkscape:locked="false"
       inkscape:label=""
       inkscape:color="rgb(0,0,255)" />
    <sodipodi:guide
       position="0,67.468752"
       orientation="1,0"
       id="guide4491"
       inkscape:locked="false" />
    <sodipodi:guide
       position="67.733334,70.114584"
       orientation="1,0"
       id="guide4493"
       inkscape:locked="false"
       inkscape:label=""
       inkscape:color="rgb(0,0,255)" />
    <sodipodi:guide
       position="5.2916665,0"
       orientation="0,1"
       id="guide4495"
       inkscape:locked="false" />
    <sodipodi:guide
       position="2.1166666,3.7041667"
       orientation="0,1"
       id="guide5081"
       inkscape:locked="false" />
    <sodipodi:guide
       position="2.2582542,1.5006733"
       orientation="0,1"
       id="guide5083"
       inkscape:locked="false" />
  </sodipodi:namedview>
  <metadata
     id="metadata5">
    <rdf:RDF>
      <cc:Work
         rdf:about="">
        <dc:format>image/svg+xml</dc:format>
        <dc:type
           rdf:resource="http://purl.org/dc/dcmitype/StillImage" />
        <dc:title />
      </cc:Work>
    </rdf:RDF>
  </metadata>
  <g
     inkscape:label="Layer 1"
     inkscape:groupmode="layer"
     id="layer1"
     transform="translate(0,-292.76665)">
    <path
       style="opacity:1;fill:#cea4f1;fill-opacity:1;stroke:none;stroke-width:0.97919625;stroke-linecap:square;stroke-linejoin:round;stroke-miterlimit:0;stroke-dasharray:none;stroke-opacity:1;paint-order:stroke markers fill"
       d="M 3.3164062,2 C 2.0437845,2 1.0195312,3.0242703 1.0195312,4.296875 V 8.03125 c 0,1.2726047 1.0242533,2.296875 2.296875,2.296875 h 5.21875 c 0,3.084775 -4.2246093,3.802734 -4.2246093,3.802734 0,0 6.3613281,-0.996926 6.3613281,-3.802734 h 2.03125 C 13.975748,10.328125 15,9.3038547 15,8.03125 V 4.296875 C 15,3.0242703 13.975748,2 12.703125,2 Z M 8.4023438,3.6347656 H 9.3886719 L 9.0800781,5.203125 8.7226562,6.3457031 H 8.0175781 L 8.09375,5.203125 Z m 3.2597652,0.064453 h 0.609375 l -0.261718,1.0527343 h 0.722656 l 0.263672,-1.0527343 h 0.605468 l -0.265624,1.0527343 h 0.8125 l -0.144532,0.5820313 h -0.8125 l -0.189453,0.75 h 0.8125 L 13.666016,6.671875 H 12.859375 L 12.597656,7.71875 H 11.992188 L 12.255859,6.671875 H 11.533203 L 11.271484,7.71875 h -0.609375 l 0.261719,-1.046875 h -0.779297 l 0.144531,-0.5878906 h 0.769532 l 0.191406,-0.75 h -0.775391 l 0.146485,-0.5820313 h 0.779297 z M 4.6835938,3.78125 c 0.3026558,0 0.5808154,0.041261 0.8378906,0.1269531 0.2570752,0.083868 0.4870748,0.2111693 0.6894531,0.3789063 0.191439,0.1622673 0.3394354,0.3515251 0.4433594,0.5703125 0.103924,0.2169641 0.15625,0.4446209 0.15625,0.6816406 0,0.5743169 -0.1867851,1.0412147 -0.5605469,1.4003906 -0.3719386,0.359176 -0.8614851,0.5390625 -1.4667969,0.5390625 -0.00912,0 -0.0207,1.299e-4 -0.037109,0.00195 -0.016409,0.00182 -0.027863,0.00391 -0.035156,0.00391 h -0.025391 c -0.00547,-0.00182 -0.010025,-0.00404 -0.013672,-0.00586 L 4.7558594,7.046875 C 4.6738141,7.1836171 4.5644765,7.2886588 4.4277344,7.3652344 4.2909923,7.4399867 4.140653,7.4785156 3.9765625,7.4785156 3.7158409,7.4785156 3.5108328,7.3920866 3.3613281,7.2207031 3.2118234,7.0474964 3.1367188,6.8083854 3.1367188,6.5039062 c 0,-0.4029334 0.1297734,-0.7513821 0.3886718,-1.0449218 C 3.784289,5.1654446 4.093949,5.0195312 4.453125,5.0195312 c 0.1513279,0 0.2834442,0.038659 0.3964844,0.1152344 C 4.9644728,5.2113412 5.0397073,5.3116973 5.0761719,5.4375 L 5.1425781,5.0742188 H 5.6972656 L 5.3339844,6.96875 C 5.6092918,6.928639 5.8392915,6.7805127 6.0234375,6.5234375 6.2094068,6.2645391 6.3027344,5.9615178 6.3027344,5.6132812 6.3027344,5.2249336 6.1523952,4.9082452 5.8515625,4.6621094 5.5525531,4.4159736 5.1631028,4.2910156 4.6835938,4.2910156 4.326241,4.2910156 3.9936724,4.3614347 3.6855469,4.5 3.3792445,4.6385653 3.1174847,4.8388877 2.9023438,5.0996094 2.7346068,5.3001645 2.6070462,5.5190995 2.5195312,5.7597656 c -0.087515,0.2406661 -0.1308593,0.4911016 -0.1308593,0.75 0,0.4904484 0.1503392,0.891353 0.4511719,1.203125 0.3026558,0.3099488 0.6900231,0.4648438 1.1640624,0.4648438 0.215141,0 0.4290007,-0.038919 0.6386719,-0.1191406 0.2114945,-0.078399 0.4119468,-0.1943752 0.6015625,-0.3457032 l 0.296875,0.4316406 C 5.2748243,8.3232076 5.0126748,8.4575368 4.7519531,8.546875 4.4912315,8.6362132 4.2315547,8.6816406 3.9726562,8.6816406 c -0.2461358,0 -0.484987,-0.038529 -0.7128906,-0.1132812 C 3.0318621,8.493607 2.829067,8.3864823 2.6503906,8.2460938 2.3951387,8.0491851 2.201455,7.8055183 2.0683594,7.515625 1.9370869,7.2257317 1.8710938,6.8977189 1.8710938,6.53125 c 0,-0.3208882 0.054669,-0.6306781 0.1640624,-0.9296875 C 2.1445499,5.3025531 2.3038707,5.0290791 2.5117188,4.7792969 2.7779101,4.4584087 3.0969413,4.2123991 3.4707031,4.0410156 3.8462881,3.8678089 4.2514887,3.78125 4.6835938,3.78125 Z m 7.1757812,1.5527344 -0.191406,0.75 h 0.720703 l 0.191406,-0.75 z M 4.4472656,5.5273438 c -0.1932622,0 -0.3594815,0.09567 -0.4980468,0.2871093 -0.1385654,0.191439 -0.2070313,0.4192257 -0.2070313,0.6835938 0,0.1531511 0.036446,0.2713404 0.109375,0.3515625 0.074752,0.080222 0.1818771,0.1191406 0.3222656,0.1191406 0.1932622,0 0.3572686,-0.091115 0.4921875,-0.2734375 0.1349189,-0.184146 0.203125,-0.4095899 0.203125,-0.6757813 0,-0.1567976 -0.036446,-0.2775895 -0.109375,-0.3632812 -0.072929,-0.085692 -0.1775811,-0.1289062 -0.3125,-0.1289062 z m 3.3496094,1.21875 H 8.7832031 L 8.59375,7.71875 H 7.6054688 Z"
       transform="matrix(0.26458333,0,0,0.26458333,0,292.76665)"
       id="rect4497"
       inkscape:connector-curvature="0" />
  </g>
</svg>
